<svg width="18" height="15" viewBox="0 0 18 15" fill="none" xmlns="http://www.w3.org/2000/svg">
<path d="M13.6998 1.05114L6.48277 8.12269L4.30819 5.99082C3.65687 5.35646 2.59584 5.35646 1.93401 5.99082L0.599854 7.29074C0.284698 7.60272 0.10611 8.01869 0.10611 8.46586C0.10611 8.91304 0.284698 9.32901 0.599854 9.64099L5.29568 14.2375C5.62134 14.5599 6.05205 14.7159 6.48277 14.7159C6.91348 14.7159 7.34419 14.5599 7.66985 14.2375L17.4082 4.7117C17.7233 4.39972 17.9019 3.98375 17.9019 3.53658C17.9019 3.08941 17.7233 2.67343 17.4082 2.36145L16.074 1.06154C15.4227 0.416778 14.3512 0.416779 13.6998 1.05114ZM8.41572 11.1697L6.48277 13.052L1.79745 8.46586L3.13161 7.17635L5.89447 9.88017C6.22014 10.2026 6.7454 10.2026 7.07106 9.88017L14.8869 2.23666L14.2986 1.6439L16.2211 3.52618L8.41572 11.1697Z" fill="black"/>
</svg>
