<svg width="51" height="24" viewBox="0 0 51 24" fill="none" xmlns="http://www.w3.org/2000/svg">
<path d="M50.0878 1.30067C49.781 0.944704 49.4072 0.653076 48.9879 0.442519C48.5687 0.231962 48.1121 0.106621 47.6445 0.0736827C47.177 0.0413928 46.7077 0.104066 46.2649 0.25796C45.822 0.411855 45.4145 0.653813 45.0668 0.969386L36.6068 8.60128C36.5848 8.43169 36.5522 8.26367 36.5091 8.09821C36.367 7.56663 36.1122 7.07217 35.7622 6.64863C35.4121 6.22509 34.9752 5.88248 34.4812 5.64423C32.9113 4.98165 30.7307 5.2884 28.6233 5.59515C27.3908 5.83753 26.1319 5.91592 24.879 5.82827C24.3214 5.68776 23.7822 5.48184 23.2725 5.21478C21.6721 4.49699 19.4793 3.5154 15.3989 4.41723C13.2923 4.96372 11.3573 6.03572 9.77323 7.53379V5.2884C9.77323 5.04433 9.6767 4.81027 9.50487 4.63769C9.33304 4.46511 9.09999 4.36815 8.85699 4.36815H0.91624C0.673238 4.36815 0.440189 4.46511 0.26836 4.63769C0.0965321 4.81027 0 5.04433 0 5.2884V23.0798C0 23.3238 0.0965321 23.5579 0.26836 23.7305C0.440189 23.9031 0.673238 24 0.91624 24H8.85699C9.09999 24 9.33304 23.9031 9.50487 23.7305C9.6767 23.5579 9.77323 23.3238 9.77323 23.0798V21.8037C10.9949 22.092 16.5412 23.3865 20.6398 23.3865C24.9156 23.3865 30.1443 22.4049 33.3634 21C39.2945 18.4172 49.0616 7.26999 49.8557 6.36815C50.5437 5.7201 50.9528 4.82808 50.9962 3.88175C51.0395 2.93542 50.7136 2.00943 50.0878 1.30067ZM7.94075 22.1595H1.83248V6.20864H7.94075V22.1595ZM48.5852 5.03686L48.4996 5.12275C48.3958 5.23932 38.305 16.8467 32.6182 19.319C29.6251 20.6258 24.6896 21.546 20.6398 21.546C16.364 21.546 10.0542 19.9755 9.99313 19.9632C9.9201 19.9543 9.84626 19.9543 9.77323 19.9632V10.1473C10.439 9.38041 12.7907 6.88962 15.796 6.22705C19.2899 5.46018 21.0124 6.22705 22.5151 6.90803C23.1633 7.22875 23.8486 7.46778 24.5552 7.61968C25.9978 7.75634 27.4525 7.68195 28.8738 7.39882C30.6513 7.15342 32.667 6.87122 33.7604 7.33134C33.9955 7.46705 34.201 7.64887 34.3647 7.86599C34.5284 8.0831 34.6469 8.33107 34.7133 8.59514C34.802 8.95728 34.8034 9.33546 34.7174 9.69825C34.6313 10.061 34.4603 10.398 34.2185 10.681C32.8258 12.5583 24.3537 15.3681 20.8781 15.0921C20.6351 15.0734 20.3946 15.1524 20.2096 15.3117C20.0246 15.4711 19.9102 15.6977 19.8916 15.9418C19.8729 16.1858 19.9516 16.4273 20.1103 16.6131C20.2689 16.7989 20.4946 16.9138 20.7376 16.9326C20.9269 16.9326 21.1346 16.9326 21.3484 16.9326C25.1416 16.9326 32.386 14.6872 35.037 12.4418L35.1042 12.4049L46.2457 2.34362C46.5805 2.0441 47.0197 1.88972 47.4674 1.91417C47.7016 1.92843 47.9306 1.99013 48.1406 2.09556C48.3505 2.20099 48.5371 2.34797 48.689 2.52767C49.0027 2.87607 49.1676 3.33428 49.1482 3.8036C49.1287 4.27292 48.9266 4.71581 48.5852 5.03686Z" fill="black"/>
</svg>
